# Blender v2.78 (sub 0) OBJ File: ''
# www.blender.org
o Cube
v 2.184295 0.632484 -2.184295
v 2.184295 0.632484 2.184296
v -2.184296 0.632484 2.184295
v -2.184295 0.632484 -2.184296
v 2.184295 0.265930 -2.184295
v 2.184295 0.265930 2.184296
v -2.184296 0.265930 2.184295
v -2.184295 0.265930 -2.184296
vt 0.9999 0.0001
vt 0.0001 0.9999
vt 0.9999 0.9999
vt 0.0001 0.9999
vt 0.9999 0.0001
vt 0.9999 0.9999
vt 0.0001 0.0001
vt 0.0001 0.0001
vn 0.0000 1.0000 0.0000
vn 0.0000 -1.0000 0.0000
vn -1.0000 0.0000 -0.0000
vn 0.0000 0.0000 -1.0000
vn -0.0000 0.0000 1.0000
vn 1.0000 0.0000 0.0000
s off
f 4/1/1 2/2/1 1/3/1
f 6/4/2 8/5/2 5/6/2
f 4/1/3 7/7/3 3/8/3
f 1/3/4 8/5/4 4/1/4
f 3/8/5 6/4/5 2/2/5
f 2/2/6 5/6/6 1/3/6
f 4/1/1 3/8/1 2/2/1
f 6/4/2 7/7/2 8/5/2
f 4/1/3 8/5/3 7/7/3
f 1/3/4 5/6/4 8/5/4
f 3/8/5 7/7/5 6/4/5
f 2/2/6 6/4/6 5/6/6
